<?xml version="1.0" encoding="UTF-8" standalone="no"?>
<!DOCTYPE svg PUBLIC "-//W3C//DTD SVG 1.1//EN" "http://www.w3.org/Graphics/SVG/1.1/DTD/svg11.dtd">
<svg width="100%" height="100%" viewBox="0 0 1684 860" version="1.1" xmlns="http://www.w3.org/2000/svg" xmlns:xlink="http://www.w3.org/1999/xlink" xml:space="preserve" xmlns:serif="http://www.serif.com/" style="fill-rule:evenodd;clip-rule:evenodd;stroke-linejoin:round;stroke-miterlimit:2;">
    <g transform="matrix(1,0,0,1,-1737.867526,-1588.402265)">
        <g>
            <g transform="matrix(0.90519,0,0,1.111608,1267.978158,1279.128866)">
                <rect x="542.02" y="288.068" width="1836.509" height="749.029" style="fill:rgb(24,13,12);"/>
            </g>
            <g transform="matrix(1.111608,0,0,1.14718,1450.567567,10.503281)">
                <path d="M277.114,1935.848L468.568,1730.587C472.849,1725.997 478.935,1723.378 485.319,1723.378L663.957,1723.378C674.733,1723.378 684.497,1717.227 688.869,1707.684C693.242,1698.141 691.403,1686.998 684.177,1679.253L427.233,1403.859L751.911,1681.718C758.639,1687.477 767.862,1689.655 776.57,1687.544C785.279,1685.433 792.356,1679.303 795.493,1671.153L896.795,1408.003L830.179,1692.064C828.376,1699.753 830.212,1707.821 835.186,1714.062C840.16,1720.302 847.751,1724.063 855.885,1724.316L1670.539,1749.649L545.016,1775.862C536.842,1776.052 529.189,1779.788 524.165,1786.038C519.142,1792.289 517.279,1800.394 519.091,1808.119L585.653,2091.946L483.419,1826.379C480.403,1818.546 473.738,1812.558 465.449,1810.237C457.16,1807.915 448.226,1809.534 441.362,1814.601L277.114,1935.848Z" style="fill:rgb(247,97,10);"/>
            </g>
            <g transform="matrix(2.257016,0,0,2.257016,-1210.613666,506.779557)">
                <g transform="matrix(1,0,0,0.95,0,31.801034)">
                    <g transform="matrix(179.702048,0,0,179.702048,1398.608023,636.020688)">
                    </g>
                    <g transform="matrix(179.702048,0,0,179.702048,1434.36873,636.020688)">
                    </g>
                    <g transform="matrix(179.702048,0,0,179.702048,1470.129438,636.020688)">
                    </g>
                    <g transform="matrix(179.702048,0,0,179.702048,1505.890145,636.020688)">
                    </g>
                    <g transform="matrix(179.702048,0,0,179.702048,1541.650853,636.020688)">
                    </g>
                    <g transform="matrix(179.702048,0,0,179.702048,1577.41156,636.020688)">
                    </g>
                    <g transform="matrix(179.702048,0,0,179.702048,1613.172268,636.020688)">
                        <path d="M0.198,-0L0.066,-0L0.066,-0.7L0.198,-0.7L0.198,-0.422L0.216,-0.422L0.443,-0.7L0.612,-0.7L0.32,-0.355L0.622,-0L0.448,-0L0.216,-0.284L0.198,-0.284L0.198,-0Z" style="fill:rgb(247,97,10);fill-rule:nonzero;"/>
                    </g>
                    <g transform="matrix(179.702048,0,0,179.702048,1715.782137,636.020688)">
                        <rect x="0.066" y="-0.7" width="0.132" height="0.7" style="fill:rgb(247,97,10);fill-rule:nonzero;"/>
                    </g>
                    <g transform="matrix(179.702048,0,0,179.702048,1753.339865,636.020688)">
                        <path d="M0.198,-0L0.066,-0L0.066,-0.7L0.198,-0.7L0.198,-0.422L0.216,-0.422L0.443,-0.7L0.612,-0.7L0.32,-0.355L0.622,-0L0.448,-0L0.216,-0.284L0.198,-0.284L0.198,-0Z" style="fill:rgb(247,97,10);fill-rule:nonzero;"/>
                    </g>
                    <g transform="matrix(179.702048,0,0,179.702048,1855.949734,636.020688)">
                        <rect x="0.066" y="-0.7" width="0.132" height="0.7" style="fill:rgb(247,97,10);fill-rule:nonzero;"/>
                    </g>
                    <g transform="matrix(179.702048,0,0,179.702048,1903.391074,636.020688)">
                    </g>
                </g>
                <g transform="matrix(1,0,0,0.95,0,40.907509)">
                    <g transform="matrix(179.702048,0,0,179.702048,1488.622489,818.150189)">
                        <path d="M0.522,-0L0.066,-0L0.066,-0.7L0.516,-0.7L0.516,-0.58L0.198,-0.58L0.198,-0.413L0.488,-0.413L0.488,-0.293L0.198,-0.293L0.198,-0.12L0.522,-0.12L0.522,-0Z" style="fill:rgb(247,97,10);fill-rule:nonzero;"/>
                    </g>
                    <g transform="matrix(179.702048,0,0,179.702048,1578.29381,818.150189)">
                        <path d="M0.196,-0L0.066,-0L0.066,-0.7L0.317,-0.7L0.456,-0.09L0.474,-0.09L0.474,-0.7L0.604,-0.7L0.604,-0L0.353,-0L0.214,-0.61L0.196,-0.61L0.196,-0Z" style="fill:rgb(247,97,10);fill-rule:nonzero;"/>
                    </g>
                    <g transform="matrix(179.702048,0,0,179.702048,1688.81057,818.150189)">
                        <path d="M0.308,0.014C0.26,0.014 0.216,0.003 0.177,-0.018C0.138,-0.04 0.107,-0.072 0.085,-0.114C0.061,-0.155 0.05,-0.206 0.05,-0.266L0.05,-0.434C0.05,-0.524 0.075,-0.593 0.126,-0.641C0.177,-0.69 0.245,-0.714 0.332,-0.714C0.418,-0.714 0.484,-0.691 0.531,-0.645C0.579,-0.6 0.602,-0.538 0.602,-0.46L0.602,-0.456L0.472,-0.456L0.472,-0.464C0.472,-0.489 0.467,-0.511 0.457,-0.531C0.446,-0.551 0.431,-0.567 0.41,-0.579C0.389,-0.59 0.363,-0.596 0.332,-0.596C0.285,-0.596 0.249,-0.582 0.222,-0.553C0.195,-0.524 0.182,-0.485 0.182,-0.436L0.182,-0.264C0.182,-0.215 0.195,-0.176 0.222,-0.146C0.249,-0.117 0.286,-0.102 0.334,-0.102C0.382,-0.102 0.417,-0.115 0.439,-0.14C0.461,-0.165 0.472,-0.197 0.472,-0.236L0.472,-0.246L0.306,-0.246L0.306,-0.358L0.602,-0.358L0.602,-0L0.48,-0L0.48,-0.067L0.462,-0.067C0.457,-0.056 0.45,-0.044 0.44,-0.031C0.429,-0.018 0.414,-0.008 0.393,0.001C0.372,0.01 0.344,0.014 0.308,0.014Z" style="fill:rgb(247,97,10);fill-rule:nonzero;"/>
                    </g>
                    <g transform="matrix(179.702048,0,0,179.702048,1797.889712,818.150189)">
                        <rect x="0.066" y="-0.7" width="0.132" height="0.7" style="fill:rgb(247,97,10);fill-rule:nonzero;"/>
                    </g>
                    <g transform="matrix(179.702048,0,0,179.702048,1835.44744,818.150189)">
                        <path d="M0.196,-0L0.066,-0L0.066,-0.7L0.317,-0.7L0.456,-0.09L0.474,-0.09L0.474,-0.7L0.604,-0.7L0.604,-0L0.353,-0L0.214,-0.61L0.196,-0.61L0.196,-0Z" style="fill:rgb(247,97,10);fill-rule:nonzero;"/>
                    </g>
                    <g transform="matrix(179.702048,0,0,179.702048,1945.9642,818.150189)">
                        <path d="M0.522,-0L0.066,-0L0.066,-0.7L0.516,-0.7L0.516,-0.58L0.198,-0.58L0.198,-0.413L0.488,-0.413L0.488,-0.293L0.198,-0.293L0.198,-0.12L0.522,-0.12L0.522,-0Z" style="fill:rgb(247,97,10);fill-rule:nonzero;"/>
                    </g>
                    <g transform="matrix(179.702048,0,0,179.702048,2045.519134,818.150189)">
                    </g>
                </g>
            </g>
        </g>
    </g>
</svg>
